<svg id="Layer_1" data-name="Layer 1" xmlns="http://www.w3.org/2000/svg" viewBox="0 0 186 86"><defs><style>.cls-1{fill:#fff;}</style></defs><title>WSB</title><polyline class="cls-1" points="0 31.17 7.08 31.17 23.46 69.98 40.52 31.17 41.76 31.17 58.93 69.98 75.63 31.17 82.78 31.17 59.56 84.62 58.29 84.62 41.19 46.35 24.11 84.62 22.83 84.62 0 31.17"/><path class="cls-1" d="M322.35,203.78l-4.42,4.57Q312.41,203,307.15,203a8.17,8.17,0,0,0-5.74,2.21,6.84,6.84,0,0,0-2.39,5.16,7.64,7.64,0,0,0,2,5q2,2.41,8.27,5.65,7.68,4,10.44,7.66a14,14,0,0,1,2.71,8.4,15.08,15.08,0,0,1-4.63,11.15,15.79,15.79,0,0,1-11.56,4.57,20.2,20.2,0,0,1-8.83-2,19.2,19.2,0,0,1-7-5.55l4.32-4.91q5.27,5.94,11.18,5.94a10.07,10.07,0,0,0,7-2.65,8.2,8.2,0,0,0,2.9-6.24,8,8,0,0,0-1.92-5.26q-1.92-2.26-8.66-5.7-7.24-3.73-9.85-7.37a13.88,13.88,0,0,1-2.61-8.3A13.49,13.49,0,0,1,297,200.59a14.49,14.49,0,0,1,10.51-4q7.38,0,14.86,7.22" transform="translate(-204.64 -166.77)"/><path class="cls-1" d="M206.5,183.27h0.45a2.44,2.44,0,0,0,.73-0.07,0.63,0.63,0,0,0,.32-0.25,0.72,0.72,0,0,0,.12-0.42,0.67,0.67,0,0,0-.33-0.62,1.82,1.82,0,0,0-.88-0.15h-0.4v1.5m-1.39-2.86h1.48a4.81,4.81,0,0,1,1.73.22,1.76,1.76,0,0,1,.84.71,2.22,2.22,0,0,1,.31,1.19,2,2,0,0,1-.4,1.27,2.11,2.11,0,0,1-1.09.71,6.26,6.26,0,0,1-1.47.11v3.1h-1.39v-7.32Z" transform="translate(-204.64 -166.77)"/><path class="cls-1" d="M212.31,183.27h0.44a1.68,1.68,0,0,0,.92-0.17,0.66,0.66,0,0,0,.25-0.58,0.71,0.71,0,0,0-.12-0.41,0.72,0.72,0,0,0-.33-0.26,2.61,2.61,0,0,0-.76-0.08h-0.38v1.5m-1.39-2.86h1.47a5,5,0,0,1,1.73.21,1.8,1.8,0,0,1,.83.72,2.19,2.19,0,0,1,.31,1.19,2,2,0,0,1-.35,1.2,2.07,2.07,0,0,1-1,.73l1.74,3.25h-1.52l-1.65-3.1h-0.13v3.1h-1.39v-7.32Z" transform="translate(-204.64 -166.77)"/><path class="cls-1" d="M220.17,181.59a2.31,2.31,0,0,0-1.71.71,2.47,2.47,0,0,0-.69,1.8,2.34,2.34,0,0,0,.87,1.92,2.38,2.38,0,0,0,1.55.55,2.26,2.26,0,0,0,1.69-.72,2.58,2.58,0,0,0,0-3.53,2.27,2.27,0,0,0-1.7-.73m0-1.36a3.63,3.63,0,0,1,2.67,1.12,3.9,3.9,0,0,1,0,5.45,3.82,3.82,0,0,1-5.41,0A3.84,3.84,0,0,1,220.18,180.23Z" transform="translate(-204.64 -166.77)"/><path class="cls-1" d="M226.67,183.27h0.44a2.46,2.46,0,0,0,.73-0.07,0.63,0.63,0,0,0,.32-0.25,0.72,0.72,0,0,0,.12-0.42,0.66,0.66,0,0,0-.33-0.62,1.8,1.8,0,0,0-.88-0.15h-0.39v1.5m-1.39-2.86h1.48a4.82,4.82,0,0,1,1.73.22,1.78,1.78,0,0,1,.84.71,2.23,2.23,0,0,1,.3,1.19,2,2,0,0,1-.4,1.27,2.11,2.11,0,0,1-1.09.71,6.25,6.25,0,0,1-1.47.11v3.1h-1.39v-7.32Z" transform="translate(-204.64 -166.77)"/><polyline class="cls-1" points="26.35 13.64 30.35 13.64 30.35 15.01 27.74 15.01 27.74 16.33 30.35 16.33 30.35 17.67 27.74 17.67 27.74 19.59 30.35 19.59 30.35 20.96 26.35 20.96 26.35 13.64"/><path class="cls-1" d="M237.77,183.27h0.44a1.67,1.67,0,0,0,.91-0.17,0.66,0.66,0,0,0,.25-0.58,0.71,0.71,0,0,0-.12-0.41,0.73,0.73,0,0,0-.33-0.26,2.63,2.63,0,0,0-.77-0.08h-0.38v1.5m-1.39-2.86h1.48a5,5,0,0,1,1.73.21,1.82,1.82,0,0,1,.82.72,2.18,2.18,0,0,1,.31,1.19,2,2,0,0,1-.35,1.2,2.08,2.08,0,0,1-1,.73l1.73,3.25h-1.52l-1.65-3.1h-0.13v3.1h-1.39v-7.32Z" transform="translate(-204.64 -166.77)"/><polyline class="cls-1" points="36.84 13.64 40.88 13.64 40.88 15.02 39.55 15.02 39.55 20.96 38.13 20.96 38.13 15.02 36.84 15.02 36.84 13.64"/><polyline class="cls-1" points="41.31 13.64 42.81 13.64 44.17 16.28 45.53 13.64 47.01 13.64 44.87 17.79 44.87 20.96 43.46 20.96 43.46 17.79 41.31 13.64"/><path class="cls-1" d="M262.36,181.7l-1,.93a3,3,0,0,0-2.24-1.05,2.45,2.45,0,0,0-2.48,2.49,2.6,2.6,0,0,0,.32,1.3,2.27,2.27,0,0,0,.9.89,2.78,2.78,0,0,0,2.4.1,4,4,0,0,0,1.1-.82l0.94,1a5.08,5.08,0,0,1-1.53,1.1,4.14,4.14,0,0,1-1.65.31,3.79,3.79,0,0,1-2.79-1.08,3.74,3.74,0,0,1-1.09-2.77,3.79,3.79,0,0,1,.49-1.94,3.68,3.68,0,0,1,1.42-1.37,4,4,0,0,1,2-.52,4.12,4.12,0,0,1,1.74.38,4.18,4.18,0,0,1,1.44,1.09" transform="translate(-204.64 -166.77)"/><path class="cls-1" d="M267,181.59a2.3,2.3,0,0,0-1.71.71,2.47,2.47,0,0,0-.69,1.8,2.34,2.34,0,0,0,.87,1.92,2.38,2.38,0,0,0,1.55.55,2.27,2.27,0,0,0,1.69-.72,2.58,2.58,0,0,0,0-3.53,2.28,2.28,0,0,0-1.71-.73m0-1.36a3.64,3.64,0,0,1,2.67,1.12,3.74,3.74,0,0,1,1.12,2.74,3.69,3.69,0,0,1-1.1,2.71,3.82,3.82,0,0,1-5.41,0,3.92,3.92,0,0,1-.58-4.63A3.82,3.82,0,0,1,267,180.23Z" transform="translate(-204.64 -166.77)"/><polyline class="cls-1" points="67.5 13.64 68.84 13.64 71.97 18.46 71.97 13.64 73.36 13.64 73.36 20.96 72.02 20.96 68.89 16.16 68.89 20.96 67.5 20.96 67.5 13.64"/><path class="cls-1" d="M283.51,181.41l-1,.91a1.46,1.46,0,0,0-1.11-.76,0.67,0.67,0,0,0-.45.15,0.43,0.43,0,0,0-.17.33,0.57,0.57,0,0,0,.13.35,10,10,0,0,0,1,.94c0.53,0.44.85,0.72,1,.84a3,3,0,0,1,.6.82,2.09,2.09,0,0,1,.18.86,2,2,0,0,1-.62,1.48,2.27,2.27,0,0,1-1.62.59,2.41,2.41,0,0,1-1.37-.38,3,3,0,0,1-1-1.2l1.17-.7a1.49,1.49,0,0,0,1.22,1,0.89,0.89,0,0,0,.6-0.21,0.62,0.62,0,0,0,.24-0.48,0.82,0.82,0,0,0-.18-0.49,4.92,4.92,0,0,0-.81-0.76,8.36,8.36,0,0,1-1.55-1.5,1.93,1.93,0,0,1-.35-1.06,1.73,1.73,0,0,1,.58-1.3,2,2,0,0,1,1.44-.55,2.26,2.26,0,0,1,1,.25,3.79,3.79,0,0,1,1.07.93" transform="translate(-204.64 -166.77)"/><path class="cls-1" d="M284.92,180.41h1.4v4.73a2.45,2.45,0,0,0,.11.87,0.83,0.83,0,0,0,.35.4,1.1,1.1,0,0,0,.6.15,1.18,1.18,0,0,0,.63-0.17,0.89,0.89,0,0,0,.37-0.43,3.19,3.19,0,0,0,.1-1v-4.56h1.39v4.36a6.32,6.32,0,0,1-.12,1.53,2.33,2.33,0,0,1-1.28,1.41,2.8,2.8,0,0,1-1.06.19,2.59,2.59,0,0,1-1.38-.36,2.13,2.13,0,0,1-.84-0.91,4.88,4.88,0,0,1-.26-1.86v-4.36" transform="translate(-204.64 -166.77)"/><polyline class="cls-1" points="86.85 13.64 88.24 13.64 88.24 19.63 90.27 19.63 90.27 20.96 86.85 20.96 86.85 13.64"/><polyline class="cls-1" points="90.61 13.64 94.65 13.64 94.65 15.02 93.32 15.02 93.32 20.96 91.91 20.96 91.91 15.02 90.61 15.02 90.61 13.64"/><path class="cls-1" d="M303.19,182.35l-1,2.51h2l-1-2.51m-0.71-1.94h1.42l2.81,7.32h-1.45l-0.57-1.51h-3l-0.6,1.51h-1.45Z" transform="translate(-204.64 -166.77)"/><polyline class="cls-1" points="103.15 13.64 104.48 13.64 107.61 18.46 107.61 13.64 109 13.64 109 20.96 107.67 20.96 104.54 16.16 104.54 20.96 103.15 20.96 103.15 13.64"/><polyline class="cls-1" points="109.96 13.64 114 13.64 114 15.02 112.67 15.02 112.67 20.96 111.25 20.96 111.25 15.02 109.96 15.02 109.96 13.64"/><path class="cls-1" d="M323.44,181.41l-1,.91a1.47,1.47,0,0,0-1.11-.76,0.67,0.67,0,0,0-.45.15,0.43,0.43,0,0,0-.17.33,0.57,0.57,0,0,0,.12.35,10.53,10.53,0,0,0,1,.94c0.53,0.44.85,0.72,1,.84a2.93,2.93,0,0,1,.6.82,2.06,2.06,0,0,1,.18.86,2,2,0,0,1-.62,1.48,2.28,2.28,0,0,1-1.62.59,2.4,2.4,0,0,1-1.36-.38,3,3,0,0,1-1-1.2l1.17-.7a1.49,1.49,0,0,0,1.22,1,0.9,0.9,0,0,0,.6-0.21,0.63,0.63,0,0,0,.24-0.48,0.82,0.82,0,0,0-.18-0.49,5.14,5.14,0,0,0-.81-0.76,8.33,8.33,0,0,1-1.54-1.5,1.91,1.91,0,0,1-.35-1.06,1.73,1.73,0,0,1,.58-1.3,2,2,0,0,1,1.43-.55,2.26,2.26,0,0,1,1,.25,3.76,3.76,0,0,1,1.07.93" transform="translate(-204.64 -166.77)"/><path class="cls-1" d="M341.86,166.77v40.36a29,29,0,0,1,9.67-7.93,27.1,27.1,0,0,1,31.09,5.6,27.55,27.55,0,0,1,8,20,27.16,27.16,0,0,1-8.1,19.8,26.38,26.38,0,0,1-19.48,8.21,24.92,24.92,0,0,1-11.83-2.8,27.56,27.56,0,0,1-9.37-8.4v9.83H335V166.77h6.88m20.64,79.37a20.71,20.71,0,0,0,18.31-10.76,21.82,21.82,0,0,0,0-21.67,21.11,21.11,0,0,0-7.77-8,20.23,20.23,0,0,0-10.42-2.87,21.42,21.42,0,0,0-10.71,2.87,20,20,0,0,0-7.8,7.74,22,22,0,0,0-2.72,11,21.3,21.3,0,0,0,6.1,15.52A20.18,20.18,0,0,0,362.49,246.13Z" transform="translate(-204.64 -166.77)"/></svg>