<svg id="Layer_1" data-name="Layer 1" xmlns="http://www.w3.org/2000/svg" viewBox="0 0 139.65 59.89"><defs><style>.cls-1{fill:#2dccd3;}</style></defs><title>download</title><path class="cls-1" d="M351.12,317.39h2.15a2.35,2.35,0,0,1,2.54,2.61v4.73c0,1.88-1,2.77-2.67,2.77h-2V317.39Zm1.45,8.75h0.67a1,1,0,0,0,1.12-1.26V320a1,1,0,0,0-1.12-1.25h-0.67v7.39Z" transform="translate(-351.12 -267.69)"/><path class="cls-1" d="M359.65,319.77a2.43,2.43,0,1,1,4.86,0v5.34a2.43,2.43,0,1,1-4.86,0v-5.34Zm1.45,5.34a1,1,0,1,0,2,0v-5.34a1,1,0,1,0-2,0v5.34Z" transform="translate(-351.12 -267.69)"/><path class="cls-1" d="M374.18,327.5h-1.36l-1.11-6.56h0l-1.09,6.56h-1.36l-1.51-10.12h1.53l0.72,6.42h0l1.14-6.42h1.11l1.18,6.58h0l0.7-6.58h1.53Z" transform="translate(-351.12 -267.69)"/><path class="cls-1" d="M379.1,317.39h1.39l2.19,6.1h0v-6.1h1.45V327.5H382.8l-2.22-6.08h0v6.08H379.1V317.39Z" transform="translate(-351.12 -267.69)"/><path class="cls-1" d="M388,317.39h1.45v8.67h2.87v1.45H388V317.39Z" transform="translate(-351.12 -267.69)"/><path class="cls-1" d="M395.76,319.77a2.43,2.43,0,1,1,4.86,0v5.34a2.43,2.43,0,1,1-4.86,0v-5.34Zm1.45,5.34a1,1,0,1,0,2,0v-5.34a1,1,0,1,0-2,0v5.34Z" transform="translate(-351.12 -267.69)"/><path class="cls-1" d="M405.89,317.39h1.21l2.26,10.12h-1.45l-0.43-2.17h-2l-0.43,2.17h-1.45Zm0.61,2.91h0L405.76,324h1.45Z" transform="translate(-351.12 -267.69)"/><path class="cls-1" d="M412.63,317.39h2.15a2.35,2.35,0,0,1,2.54,2.61v4.73c0,1.88-1,2.77-2.67,2.77h-2V317.39Zm1.45,8.75h0.67a1,1,0,0,0,1.12-1.26V320a1,1,0,0,0-1.12-1.25h-0.67v7.39Z" transform="translate(-351.12 -267.69)"/><path class="cls-1" d="M426.44,317.39h2.12a2.36,2.36,0,0,1,2.57,2.56v0.37a1.85,1.85,0,0,1-1,1.88,1.92,1.92,0,0,1,1,2v0.57a2.42,2.42,0,0,1-2.71,2.76h-2V317.39Zm1.45,4.15h0.65c1,0,1.22-.5,1.22-1.42a1.14,1.14,0,0,0-1.28-1.36h-0.6v2.78Zm0,4.52h0.63c1.16,0,1.25-.71,1.25-1.71s-0.19-1.53-1.24-1.53h-0.64v3.24Z" transform="translate(-351.12 -267.69)"/><path class="cls-1" d="M435,317.39h2.33c1.72,0,2.56,1,2.56,3a2.58,2.58,0,0,1-1.25,2.53l1.56,4.62h-1.53l-1.35-4.32H436.5v4.32H435V317.39Zm1.45,4.52h0.82c1,0,1.17-.57,1.17-1.58s-0.17-1.58-1.24-1.58H436.5v3.15Z" transform="translate(-351.12 -267.69)"/><path class="cls-1" d="M443.58,319.77a2.43,2.43,0,1,1,4.86,0v5.34a2.43,2.43,0,1,1-4.86,0v-5.34Zm1.45,5.34a1,1,0,1,0,2,0v-5.34a1,1,0,1,0-2,0v5.34Z" transform="translate(-351.12 -267.69)"/><path class="cls-1" d="M456.88,325.24a2.34,2.34,0,0,1-2.3,2.34,2.19,2.19,0,0,1-2.39-2.39v-5.57a2.26,2.26,0,0,1,2.36-2.33,2.3,2.3,0,0,1,2.33,2.42v0.57h-1.45V319.8a1,1,0,0,0-.9-1.05c-0.72,0-.9.5-0.9,1.18v5.17a0.87,0.87,0,0,0,.88,1,0.9,0.9,0,0,0,.91-1v-0.5h1.45v0.63Z" transform="translate(-351.12 -267.69)"/><path class="cls-1" d="M460.61,317.39h1.45v4.33h1.79v-4.33h1.45V327.5h-1.45V323h-1.79v4.5h-1.45V317.39Z" transform="translate(-351.12 -267.69)"/><path class="cls-1" d="M473.91,325.23a2.34,2.34,0,1,1-4.69,0v-7.84h1.45v7.7a0.91,0.91,0,1,0,1.79,0v-7.7h1.45v7.84Z" transform="translate(-351.12 -267.69)"/><path class="cls-1" d="M477.84,317.39h2.33c1.72,0,2.56,1,2.56,3a2.58,2.58,0,0,1-1.25,2.53L483,327.5H481.5l-1.35-4.32h-0.87v4.32h-1.45V317.39Zm1.45,4.52h0.82c1,0,1.17-.57,1.17-1.58s-0.17-1.58-1.24-1.58h-0.75v3.15Z" transform="translate(-351.12 -267.69)"/><path class="cls-1" d="M486.45,317.39h4.32v1.36H487.9v3h2.5v1.36h-2.5v3h2.87v1.45h-4.32V317.39Z" transform="translate(-351.12 -267.69)"/><path class="cls-1" d="M420.94,293.58l-13.2-13.2h7.83V267.69h10.74v12.68h7.83Zm-9.83-11.81,9.83,9.83,9.83-9.83h-5.86V269.09H417v12.68h-5.86Z" transform="translate(-351.12 -267.69)"/><rect class="cls-1" x="69.13" y="0.7" width="1.39" height="23.22"/><path class="cls-1" d="M446.74,305.49H395.15v-15h8.21v6.82h35.17v-6.82h8.21v15Zm-50.19-1.39h48.8V291.86h-5.42v6.82H402v-6.82h-5.42v12.24Z" transform="translate(-351.12 -267.69)"/><rect class="cls-1" x="441.98" y="296.57" width="1.39" height="9.64" transform="translate(-434.57 133.6) rotate(-45)"/><rect class="cls-1" x="394.39" y="300.69" width="9.64" height="1.39" transform="translate(-447.31 102.87) rotate(-45)"/></svg>