<svg id="Layer_1" data-name="Layer 1" xmlns="http://www.w3.org/2000/svg" viewBox="0 0 186 82.76"><defs><style>.cls-1{fill:#fff;}</style></defs><title>JLL</title><path class="cls-1" d="M317.38,184.95h-21v1.93a20.57,20.57,0,0,1,2.5.36,4.14,4.14,0,0,1,1.81.79c1.26,1.07,1.23,3.07,1.23,6.7v24.36c0,5,.45,12-6.58,11.88a7.56,7.56,0,0,1-7.06-6.1h-2.42c1,6.57,4.52,11,13,11h0c7.2,0,13.63-3.31,13.61-14.55V194.74c0-3.63,0-5.55,1.23-6.62,0.8-.68,1.47-1,3.66-1.24v-1.93Z" transform="translate(-204.64 -168.39)"/><path class="cls-1" d="M341.5,184.95h-21v1.93c2.2,0.21,2.86.55,3.66,1.24,1,0.86,1.19,2.26,1.22,4.66,0,0.72,0,1.53,0,2.44v29.13c0,0.9,0,1.71,0,2.44,0,2.39-.22,3.8-1.22,4.65-0.8.68-1.47,1-3.66,1.24v1.93h31.78l3.35-9.73h-2.47c-2.44,5.34-6.22,6-9.66,6-2.82,0-4.69-.16-6-1-1.07-.69-1.47-2.5-1.49-5.56V194.74c0-3.63,0-5.63,1.23-6.7,0.8-.68,2.12-0.94,4.32-1.16v-1.93h0Z" transform="translate(-204.64 -168.39)"/><path class="cls-1" d="M376.54,184.95h-21v1.93c2.2,0.21,2.86.55,3.66,1.24,1,0.86,1.19,2.26,1.22,4.66,0,0.72,0,1.53,0,2.44v29.13c0,0.9,0,1.71,0,2.44,0,2.39-.21,3.8-1.22,4.65-0.8.68-1.47,1-3.66,1.24v1.93h31.78l3.35-9.73h-2.47c-2.44,5.34-6.22,6-9.66,6-2.82,0-4.69-.16-6-1-1.07-.69-1.47-2.5-1.49-5.56V194.74c0-3.63,0-5.63,1.23-6.7,0.8-.68,2.12-0.94,4.32-1.16v-1.93h0Z" transform="translate(-204.64 -168.39)"/><path class="cls-1" d="M235.51,249.58a18.53,18.53,0,0,0,2.8-1.61c0.19-.13.38-0.25,0.56-0.39a24.39,24.39,0,0,0,3.1-2.79,31,31,0,0,0,3.39-4.32,40.43,40.43,0,0,0,2.19-3.77,54.09,54.09,0,0,0,5.09-16.2,70,70,0,0,0,.8-10.73h0a69.92,69.92,0,0,0-.8-10.73,54.08,54.08,0,0,0-5.09-16.2c-0.3-.59-0.62-1.17-0.95-1.74A49.21,49.21,0,0,0,243.2,189a61.87,61.87,0,0,1,3,15.44c0.12,1.77.17,3.56,0.17,5.34h0c0,1.79,0,3.57-.17,5.34a59.82,59.82,0,0,1-4.23,18.7,46.68,46.68,0,0,1-3.39,6.66c-0.31.5-.59,1-0.92,1.5-0.67,1-1.39,2-2.15,2.91a35.69,35.69,0,0,1-2.8,3.1,28.92,28.92,0,0,1-3.38,2.85L229,251v0.11h0A16.56,16.56,0,0,0,235.51,249.58Zm0-4.7h0Z" transform="translate(-204.64 -168.39)"/><path class="cls-1" d="M248.44,249.58a18.58,18.58,0,0,0,2.8-1.61c0.19-.13.38-0.25,0.56-0.39a31,31,0,0,0,8.68-10.88,54.09,54.09,0,0,0,5.09-16.2,69.85,69.85,0,0,0,.8-10.73h0a70,70,0,0,0-.8-10.73,54.11,54.11,0,0,0-5.09-16.2,31.88,31.88,0,0,0-7.85-10.21,38.64,38.64,0,0,0-3,3.62q0.48,0.66.93,1.33c5.33,7.92,7.89,17.4,8.54,26.86,0.12,1.77.18,3.56,0.18,5.34s-0.06,3.57-.18,5.34c-0.65,9.45-3.21,18.94-8.54,26.86-0.67,1-1.39,2-2.15,2.91a35.87,35.87,0,0,1-2.8,3.1,29,29,0,0,1-3.38,2.85L242,251v0.11h0A16.55,16.55,0,0,0,248.44,249.58Z" transform="translate(-204.64 -168.39)"/><path class="cls-1" d="M264.73,247.58a31,31,0,0,0,8.69-10.88,54.08,54.08,0,0,0,5.09-16.2,69.89,69.89,0,0,0,.8-10.73h0a69.88,69.88,0,0,0-.8-10.73,54.08,54.08,0,0,0-5.09-16.2,31,31,0,0,0-8.68-10.88,17.47,17.47,0,0,0-9.83-3.56h0v0.11a34.5,34.5,0,0,1,8.62,9.07c5.33,7.92,7.89,17.4,8.54,26.86q0.18,2.66.18,5.34t-0.18,5.34c-0.65,9.45-3.21,18.94-8.54,26.85a34.45,34.45,0,0,1-8.61,9.07v0.11h0A17.47,17.47,0,0,0,264.73,247.58Z" transform="translate(-204.64 -168.39)"/><path class="cls-1" d="M248.44,169.95a18.58,18.58,0,0,0-2.8,1.61l-0.56.39a24.45,24.45,0,0,0-3.1,2.79,31,31,0,0,0-3.39,4.32,40.39,40.39,0,0,0-2.19,3.77,54.1,54.1,0,0,0-5.09,16.2,70,70,0,0,0-.8,10.73h0a69.9,69.9,0,0,0,.8,10.73,54.08,54.08,0,0,0,5.09,16.2c0.3,0.59.62,1.17,0.95,1.74a49.21,49.21,0,0,0,3.42-7.89,61.87,61.87,0,0,1-3-15.44c-0.12-1.77-.17-3.56-0.17-5.34h0c0-1.79,0-3.57.17-5.34a59.82,59.82,0,0,1,4.23-18.7,46.63,46.63,0,0,1,3.39-6.66c0.31-.5.59-1,0.92-1.5,0.67-1,1.39-2,2.15-2.91a35.79,35.79,0,0,1,2.8-3.1,28.93,28.93,0,0,1,3.38-2.85l0.28-.21v-0.11h0A16.55,16.55,0,0,0,248.44,169.95Zm0,4.7h0Z" transform="translate(-204.64 -168.39)"/><path class="cls-1" d="M235.51,169.95a18.65,18.65,0,0,0-2.8,1.61l-0.56.39a31,31,0,0,0-8.68,10.88,54.09,54.09,0,0,0-5.09,16.2,69.86,69.86,0,0,0-.8,10.73h0a70,70,0,0,0,.8,10.73,54.11,54.11,0,0,0,5.09,16.2,31.88,31.88,0,0,0,7.85,10.21,38.7,38.7,0,0,0,3-3.62q-0.48-.66-0.93-1.33c-5.33-7.92-7.89-17.4-8.54-26.86-0.12-1.77-.18-3.56-0.18-5.34s0.06-3.57.18-5.34c0.65-9.45,3.21-18.94,8.54-26.85,0.67-1,1.39-2,2.15-2.91a35.85,35.85,0,0,1,2.8-3.1,29,29,0,0,1,3.38-2.85l0.28-.21v-0.11h0A16.55,16.55,0,0,0,235.51,169.95Z" transform="translate(-204.64 -168.39)"/><path class="cls-1" d="M219.22,171.95a31,31,0,0,0-8.69,10.88,54.09,54.09,0,0,0-5.09,16.2,69.92,69.92,0,0,0-.8,10.73h0a69.93,69.93,0,0,0,.81,10.73,54.1,54.1,0,0,0,5.09,16.2,31,31,0,0,0,8.68,10.88,17.47,17.47,0,0,0,9.83,3.56h0V251a34.49,34.49,0,0,1-8.62-9.07c-5.33-7.92-7.89-17.4-8.54-26.86-0.12-1.77-.18-3.56-0.18-5.34s0.06-3.57.18-5.34c0.65-9.45,3.21-18.94,8.54-26.85A34.45,34.45,0,0,1,229,168.5v-0.11h0A17.47,17.47,0,0,0,219.22,171.95Z" transform="translate(-204.64 -168.39)"/><path class="cls-1" d="M244.24,246.91a38.58,38.58,0,0,0,3-3.62q-0.48-.66-0.93-1.33c-0.33-.49-0.61-1-0.92-1.5a31,31,0,0,1-3.39,4.32,25.12,25.12,0,0,0,2.27,2.12" transform="translate(-204.64 -168.39)"/><path class="cls-1" d="M251.24,248a18.53,18.53,0,0,1-2.8,1.61,16.55,16.55,0,0,0,6.46,1.56h0V251a28.78,28.78,0,0,1-3.67-3.06" transform="translate(-204.64 -168.39)"/><path class="cls-1" d="M240.75,251.06c0.35,0,.7-0.09,1-0.16-0.35-.25-0.7-0.51-1-0.78a30.17,30.17,0,0,1-2.45-2.15,18.55,18.55,0,0,1-2.8,1.61,17.29,17.29,0,0,0,4.2,1.32c0.35,0.06.7,0.12,1,.16m1.22,0.09V251l-0.17-.13c-0.35.06-.7,0.12-1,0.16,0.41,0,.81.07,1.22,0.09h0Z" transform="translate(-204.64 -168.39)"/><path class="cls-1" d="M239.71,172.62a38.57,38.57,0,0,0-3,3.62q0.48,0.66.93,1.33c0.33,0.49.61,1,.92,1.5a31,31,0,0,1,3.39-4.32,25,25,0,0,0-2.27-2.12" transform="translate(-204.64 -168.39)"/><path class="cls-1" d="M232.71,171.56a18.62,18.62,0,0,1,2.8-1.61,16.55,16.55,0,0,0-6.46-1.56h0v0.11a28.83,28.83,0,0,1,3.67,3.06" transform="translate(-204.64 -168.39)"/><path class="cls-1" d="M248.44,169.95a17.26,17.26,0,0,0-4.2-1.32c-0.35-.06-0.7-0.12-1-0.16h0c-0.41,0-.81-0.08-1.22-0.09h0v0.11l0.17,0.13h0c0.35,0.25.7,0.51,1,.78a30.06,30.06,0,0,1,2.45,2.15,18.56,18.56,0,0,1,2.8-1.61" transform="translate(-204.64 -168.39)"/><path class="cls-1" d="M385.22,184.75a3,3,0,0,1,1.45.38,2.72,2.72,0,0,1,1.09,1.08,2.94,2.94,0,0,1,0,2.93,2.76,2.76,0,0,1-1.08,1.08,2.94,2.94,0,0,1-2.92,0,2.76,2.76,0,0,1-1.08-1.08,2.94,2.94,0,0,1,0-2.93,2.73,2.73,0,0,1,1.09-1.08A3,3,0,0,1,385.22,184.75Zm0,0.57a2.39,2.39,0,0,0-1.16.3,2.19,2.19,0,0,0-.87.87,2.36,2.36,0,0,0,0,2.36,2.23,2.23,0,0,0,.87.87,2.35,2.35,0,0,0,2.34,0,2.25,2.25,0,0,0,.87-0.87,2.36,2.36,0,0,0,0-2.36,2.19,2.19,0,0,0-.88-0.87A2.4,2.4,0,0,0,385.22,185.32Zm-1.33,3.93v-3.11h1.63a1.23,1.23,0,0,1,.49.12,0.78,0.78,0,0,1,.29.3,0.87,0.87,0,0,1,.12.45,0.82,0.82,0,0,1-.22.58,1,1,0,0,1-.62.3,0.78,0.78,0,0,1,.22.12,1.55,1.55,0,0,1,.21.24l0.23,0.38,0.37,0.63h-0.78l-0.26-.51a2.11,2.11,0,0,0-.44-0.64,0.7,0.7,0,0,0-.44-0.13h-0.16v1.28H383.9Zm0.63-1.77h0.26a3.12,3.12,0,0,0,.68,0,0.4,0.4,0,0,0,.29-0.39,0.38,0.38,0,0,0-.07-0.23,0.41,0.41,0,0,0-.21-0.15,3,3,0,0,0-.68,0h-0.26v0.85Z" transform="translate(-204.64 -168.39)"/></svg>